# xmcd CD database file generated by Grip 3.2.0
# 
# Track frame offsets:
#       150
#       35217
#       51339
#       73241
#       86495
#       105633
#       120594
#       140127
#       207572
#       232415
#       249844
#       268481
# 
# Disc length: 3852 seconds
# 
# Revision: 6
# Processed by: cddbd v1.5.2PL0 Copyright (c) Steve Scherf et al.
# Submitted via: Grip 3.2.0
# 
DISCID=c50f0a0c
DTITLE=Various Artist - Jazz In The House - Box Set 4 [CD 2)
DYEAR=2002
DGENRE=House
TTITLE0=Octave One - Blackwater (String Vocal Mix)
TTITLE1=DJ Spinna and Rich Medina - Reality
TTITLE2=DJ Fudge - Close To My People
TTITLE3=John Ciafone - Everyday (Instrumental Mix)
TTITLE4=Peven Everett - I Can't Believe I Loved Her (Calypso Mix)
TTITLE5=3 Generations Walking - Slavery Days
TTITLE6=DJ Gregory - Tropical Soundclash
TTITLE7=Mondo Grosso - Star Suite (Shelter Vocal Mix)
TTITLE8=Su-Paka-Pooh - Theme de Yo - Yo (Restless Soul Peak Time Remix)
TTITLE9=Bongo Maffin - Mari Ye Phepha (DF's Jo'Burg Vocal Mix)
TTITLE10=Nathan Haines feat. Shelley Nelson - Believe (Kenny Dope Mix)
TTITLE11=Blaze - Breathe (Original Album Version)
EXTD=YEAR: 2003
EXTT0=
EXTT1=
EXTT2=
EXTT3=
EXTT4=
EXTT5=
EXTT6=
EXTT7=
EXTT8=
EXTT9=
EXTT10=
EXTT11=
PLAYORDER=
